<?xml version="1.0" standalone="no"?>
<!DOCTYPE svg PUBLIC "-//W3C//DTD SVG 20010904//EN"
 "http://www.w3.org/TR/2001/REC-SVG-20010904/DTD/svg10.dtd">
<svg version="1.0" xmlns="http://www.w3.org/2000/svg"
 width="809.000000pt" height="203.000000pt" viewBox="0 0 809.000000 203.000000"
 preserveAspectRatio="xMidYMid meet">

<g transform="translate(0.000000,203.000000) scale(0.100000,-0.100000)"
fill="#000000" stroke="none">
<path d="M1201 1880 c-36 -17 -93 -51 -128 -76 -86 -61 -109 -70 -248 -88
-305 -41 -445 -85 -527 -164 -54 -51 -64 -132 -17 -132 14 0 19 7 19 29 0 83
139 150 404 196 79 13 226 21 226 11 0 -2 -20 -48 -44 -102 -56 -129 -119
-318 -164 -501 l-37 -146 -79 -19 c-129 -30 -200 -70 -293 -163 -66 -67 -90
-100 -127 -177 -155 -319 -51 -538 194 -407 74 39 175 144 223 231 43 76 115
260 152 383 43 146 33 135 120 135 41 0 75 -4 75 -8 0 -5 -9 -53 -21 -108 -40
-188 -27 -284 40 -284 39 0 58 19 135 129 36 52 66 90 67 85 1 -5 0 -38 -1
-74 -1 -36 3 -77 9 -92 9 -24 63 -68 83 -68 20 0 70 59 117 139 29 50 55 91
57 91 3 0 4 -32 3 -70 -2 -83 14 -110 67 -110 29 0 37 7 92 93 33 51 90 148
127 215 100 183 104 179 41 -41 -51 -177 -82 -347 -72 -401 9 -46 43 -63 96
-47 38 12 101 92 176 224 21 37 40 63 42 58 2 -6 -3 -57 -12 -113 -42 -285
-26 -388 60 -388 26 0 41 10 82 55 53 58 75 92 188 293 38 67 72 122 75 122 3
0 9 -28 13 -62 7 -74 26 -105 73 -124 82 -35 163 37 335 296 64 97 123 182
132 189 14 12 21 12 43 0 18 -10 54 -13 117 -11 144 4 203 29 163 69 -23 23
-327 5 -355 -21 -11 -9 -69 -88 -129 -174 -104 -151 -225 -292 -250 -292 -26
0 -32 36 -22 136 6 54 16 110 22 124 7 14 34 37 60 51 113 61 195 159 182 219
-9 41 -49 70 -97 70 -83 0 -134 -50 -213 -210 -71 -142 -262 -482 -321 -571
-61 -93 -94 -103 -94 -29 0 73 30 268 59 382 51 204 169 555 188 563 33 12
198 43 348 65 83 12 156 26 163 32 13 11 16 44 5 51 -5 3 -115 -13 -246 -35
-132 -22 -241 -38 -243 -36 -2 3 7 42 20 89 38 131 39 144 20 160 -15 12 -20
10 -44 -20 -15 -18 -47 -76 -70 -129 -23 -54 -51 -107 -62 -118 -10 -12 -49
-29 -85 -39 -179 -49 -245 -101 -105 -84 31 3 79 10 106 14 l49 8 -6 -31 c-12
-59 -78 -227 -133 -337 -67 -135 -202 -338 -227 -343 -23 -5 -26 -25 50 298
78 331 79 370 16 370 -34 0 -78 -50 -127 -142 -71 -134 -147 -259 -176 -291
l-29 -32 -1 36 c0 20 12 98 26 174 19 101 23 140 15 148 -21 21 -45 -8 -106
-129 -63 -127 -164 -294 -177 -294 -10 0 -10 5 3 176 13 165 9 194 -25 194
-31 0 -44 -16 -121 -155 -73 -130 -114 -190 -123 -180 -10 9 -3 70 23 219 26
145 23 176 -15 176 -10 0 -28 -15 -39 -34 -24 -39 -64 -56 -128 -56 -30 0 -45
5 -50 16 -7 18 74 353 117 487 38 118 97 227 136 249 16 9 106 37 201 62 200
52 237 67 253 95 9 18 7 26 -19 51 -29 29 -32 30 -133 30 -94 0 -109 -3 -167
-30z m227 -29 c19 -11 -44 -36 -146 -56 -110 -23 -131 -16 -63 19 74 38 178
57 209 37z m1298 -872 c-11 -57 -106 -169 -143 -169 -20 0 -10 41 25 100 34
60 76 100 102 100 20 0 22 -4 16 -31z m-2056 -134 c0 -8 -9 -52 -20 -98 -60
-260 -225 -538 -354 -597 -138 -64 -167 157 -51 389 78 154 175 241 334 297
78 28 91 29 91 9z"/>
<path d="M7960 1548 c-28 -65 -145 -601 -171 -782 -21 -148 -21 -149 -1 -175
29 -39 50 -38 66 1 16 39 118 546 140 699 19 128 21 250 4 267 -18 18 -27 15
-38 -10z"/>
<path d="M7007 1228 c-38 -51 -49 -76 -36 -83 19 -13 89 69 89 105 0 21 -30 9
-53 -22z"/>
<path d="M3531 1165 c-77 -66 -82 -210 -12 -411 22 -66 41 -125 41 -131 0 -5
-27 -48 -61 -94 -66 -91 -129 -207 -129 -237 0 -28 34 -67 75 -86 87 -41 192
37 220 164 5 19 7 87 7 150 l-2 116 70 69 c38 38 71 67 74 64 2 -2 -2 -33 -10
-69 -7 -36 -14 -98 -14 -138 0 -117 32 -167 107 -164 77 3 147 72 289 287 113
171 152 241 141 252 -16 15 -44 -17 -142 -160 -115 -168 -203 -278 -241 -304
-25 -16 -27 -16 -40 2 -17 23 -18 68 -3 172 12 88 22 113 47 113 53 0 170 98
198 166 34 82 7 125 -82 132 l-55 5 -174 -178 c-120 -122 -179 -176 -192 -173
-22 4 -71 128 -85 215 -12 76 8 156 46 192 43 40 50 22 42 -115 -4 -76 -3
-125 3 -129 23 -14 68 96 78 187 6 55 5 58 -30 93 -31 31 -41 35 -85 35 -39 0
-57 -6 -81 -25z m569 -178 c0 -59 -103 -184 -145 -175 -33 7 94 208 132 208 8
0 13 -12 13 -33z m-520 -531 c0 -92 -57 -216 -100 -216 -64 0 -32 135 57 240
31 37 43 31 43 -24z"/>
<path d="M7320 1164 c-41 -35 -56 -67 -71 -147 l-12 -67 -121 -1 c-142 -2
-180 -8 -184 -31 -2 -9 12 -50 30 -90 43 -96 45 -185 6 -270 -31 -68 -58 -81
-95 -46 -37 34 -53 79 -53 151 0 122 67 316 132 384 32 33 31 53 -3 53 -67 0
-123 -67 -234 -279 -92 -175 -189 -333 -230 -371 l-25 -23 0 36 c0 20 29 154
65 298 36 144 65 274 65 289 0 31 -27 60 -56 60 -37 0 -106 -92 -177 -238 -35
-70 -130 -217 -149 -228 -5 -3 -11 -4 -14 -2 -2 3 9 76 26 162 34 178 36 202
16 209 -20 8 -52 -31 -70 -85 -26 -78 -56 -242 -56 -305 0 -59 12 -81 57 -107
33 -19 82 48 229 312 43 78 80 138 82 132 2 -6 -17 -83 -42 -173 -65 -231 -76
-283 -76 -359 0 -65 1 -68 30 -83 16 -8 39 -15 51 -15 38 0 118 95 194 230
l70 124 11 -49 c14 -63 28 -91 67 -133 30 -31 105 -62 150 -62 98 0 167 147
132 282 -9 34 -27 82 -40 106 -14 25 -25 50 -25 57 0 17 46 25 140 25 60 0 83
-4 99 -17 17 -15 111 -245 111 -273 0 -5 -30 -48 -67 -97 -114 -152 -141 -242
-87 -296 62 -63 184 -23 236 76 19 37 23 61 26 196 l4 155 132 127 c102 100
128 131 119 140 -16 16 -33 4 -152 -106 -109 -100 -127 -111 -146 -95 -17 14
-51 115 -66 194 -19 106 14 216 68 224 31 5 37 -42 19 -158 -15 -97 -10 -124
18 -101 22 18 45 96 53 173 6 67 6 67 -30 103 -30 30 -42 35 -80 35 -34 0 -53
-6 -77 -26z m40 -716 c0 -35 -5 -79 -10 -99 -14 -49 -51 -103 -75 -108 -21 -4
-45 23 -45 51 0 51 92 218 120 218 6 0 10 -28 10 -62z"/>
<path d="M5256 1014 l-68 -86 -18 30 c-24 40 -68 62 -121 62 -74 0 -128 -48
-188 -166 -81 -159 -57 -284 54 -284 43 0 49 4 115 70 65 66 99 87 87 57 -3
-8 -8 -44 -12 -81 -6 -52 -4 -77 9 -111 44 -113 147 -98 248 37 116 155 228
338 228 372 0 35 -35 10 -77 -54 -81 -127 -198 -293 -234 -331 -20 -21 -44
-39 -54 -39 -42 0 7 226 101 462 26 64 44 124 41 132 -14 35 -45 15 -111 -70z
m-122 -74 c31 -34 35 -44 26 -61 -18 -32 -214 -229 -229 -229 -23 0 -5 83 37
174 39 83 94 156 117 156 7 0 29 -18 49 -40z"/>
<path d="M7737 383 c-15 -15 -7 -83 13 -103 40 -40 88 -11 74 45 -10 40 -67
78 -87 58z"/>
</g>
</svg>
